<?xml version="1.0" encoding="UTF-8"?>
<!DOCTYPE svg PUBLIC "-//W3C//DTD SVG 1.0//EN" "http://www.w3.org/TR/2001/REC-SVG-20010904/DTD/svg10.dtd">
<!-- Creator: CorelDRAW X8 -->
<svg xmlns="http://www.w3.org/2000/svg" xml:space="preserve" width="42.3332mm" height="29.1252mm" version="1.0" style="shape-rendering:geometricPrecision; text-rendering:geometricPrecision; image-rendering:optimizeQuality; fill-rule:evenodd; clip-rule:evenodd"
viewBox="0 0 4233 2913"
 xmlns:xlink="http://www.w3.org/1999/xlink">
 <defs>
  <style type="text/css">
   <![CDATA[
    .fil1 {fill:#00A000}
    .fil0 {fill:#00A000;fill-rule:nonzero}
    .fil2 {fill:#00A0FF;fill-rule:nonzero}
   ]]>
  </style>
 </defs>
 <g id="Слой_x0020_1">
  <metadata id="CorelCorpID_0Corel-Layer"/>
  <g id="_2860073934496">
   <g>
    <path class="fil0" d="M1976 1776c-135,0 -229,-26 -283,-79 -54,-53 -81,-145 -81,-277l0 -215c0,-132 27,-225 80,-278 54,-53 148,-79 282,-79l63 0c128,0 220,25 276,73 57,49 86,130 88,242l-138 0c-3,-73 -20,-123 -50,-151 -30,-27 -89,-41 -176,-41l-63 0c-92,0 -152,16 -181,46 -28,31 -42,104 -42,218l0 155c0,114 14,187 43,218 28,31 89,47 180,47l63 0c88,0 148,-15 179,-45 31,-30 47,-85 47,-165l0 -15 138 0 0 17c0,118 -27,202 -83,253 -56,51 -149,76 -280,76l-62 0zm577 -801l0 -115 110 0 0 -204 134 0 0 204 443 0 0 115 -443 0 0 497c0,71 12,119 35,145 23,25 67,38 132,38 65,0 109,-13 131,-37 23,-25 34,-73 34,-146l0 -26 136 0 0 7c0,127 -21,213 -63,257 -42,44 -130,66 -262,66 -104,0 -176,-23 -216,-70 -41,-47 -61,-131 -61,-253l0 -478 -110 0zm1547 558l0 -95c0,-43 -22,-74 -66,-94 -44,-20 -113,-30 -209,-30 -87,0 -146,11 -175,33 -30,22 -44,64 -44,126 0,72 15,119 47,142 31,24 93,36 187,36 84,0 148,-10 193,-30 44,-20 67,-50 67,-88zm6 136c-20,37 -53,65 -98,82 -45,17 -107,25 -187,25 -141,0 -236,-20 -284,-61 -48,-40 -72,-115 -72,-225 0,-64 6,-114 17,-150 11,-36 29,-65 55,-86 22,-19 54,-32 96,-39 42,-8 102,-12 182,-12 81,0 144,7 187,20 43,14 76,36 98,68l0 -156c0,-74 -15,-122 -43,-144 -29,-21 -101,-32 -215,-32 -84,0 -140,8 -167,26 -27,17 -42,50 -43,98l-134 0 0 -20c0,-78 25,-133 75,-166 51,-33 137,-49 259,-49 96,0 169,4 218,12 50,8 87,21 111,39 27,20 45,46 56,76 11,30 16,82 16,156l0 633 -121 0 -6 -95z"/>
    <path class="fil1" d="M0 940l0 -108c1,-41 9,-57 44,-92l136 -137 131 -134c35,-35 63,-44 104,-45l290 -1 272 0c41,1 82,11 117,46l135 134 134 135c35,35 45,76 46,117l0 240 0 305c-1,41 -11,82 -46,117l-134 135 -135 134c-35,35 -76,45 -117,46l-268 0 -286 0c-41,-1 -74,-13 -113,-51l-130 -129 -134 -135c-35,-35 -45,-63 -46,-117l1 -91c1,-138 128,-218 270,-218l152 0c13,-42 37,-72 74,-70l105 0 0 -21c0,-7 5,-12 11,-12l31 0c6,0 11,5 11,12l0 65 126 0c18,0 18,40 0,40l-126 0 0 105 126 0c18,0 18,40 0,40l-126 0 0 74c0,6 -5,12 -11,12l-30 0c-6,0 -11,-6 -11,-12l0 -20 -110 0c-35,0 -58,-30 -70,-70l-92 0c-166,0 -194,39 -195,114 0,43 8,66 37,94l108 109 105 104c32,31 58,41 91,41l231 1 216 -1c34,0 67,-8 95,-37l109 -108 108 -109c29,-28 37,-61 37,-94l0 -247 0 -193c0,-33 -8,-67 -37,-95l-108 -109 -109 -108c-28,-28 -61,-36 -95,-37l-219 0 -234 1c-33,0 -56,7 -84,36l-106 108 -110 111c-28,28 -35,41 -35,74l0 51c0,87 -136,89 -136,0z"/>
   </g>
   <path class="fil2" d="M2005 2211c-3,46 -17,79 -42,99 -24,20 -63,30 -116,30l-54 0c-59,0 -100,-13 -124,-37 -24,-24 -36,-67 -36,-128l0 -83c0,-61 12,-104 36,-128 24,-25 65,-37 124,-37l54 0c59,0 100,12 124,37 24,24 35,67 35,128l0 63 -244 0 0 50c0,18 3,30 11,38 7,7 21,11 39,11l17 0c17,0 30,-3 37,-9 7,-7 11,-18 13,-34l126 0zm-243 -123l119 0 0 -14c0,-27 -3,-45 -10,-54 -7,-8 -21,-13 -41,-13l-17 0c-20,0 -33,5 -40,13 -8,9 -11,25 -11,50l0 18zm336 246l0 -402 124 0 -2 57c12,-22 26,-38 44,-48 18,-9 42,-14 71,-14 48,0 81,10 99,30 19,21 28,59 28,116l0 261 -128 0 0 -233c0,-29 -3,-48 -10,-56 -7,-9 -22,-14 -47,-14 -20,0 -33,5 -40,15 -8,9 -12,30 -12,63l0 225 -127 0zm821 -123c-3,46 -17,79 -42,99 -25,20 -63,30 -116,30l-54 0c-59,0 -100,-13 -124,-37 -24,-24 -36,-67 -36,-128l0 -83c0,-61 12,-104 36,-128 24,-25 65,-37 124,-37l54 0c59,0 100,12 124,37 23,24 35,67 35,128l0 63 -245 0 0 50c0,18 4,30 12,38 7,7 20,11 39,11l17 0c17,0 30,-3 37,-9 7,-7 11,-18 13,-34l126 0zm-244 -123l120 0 0 -14c0,-27 -3,-45 -10,-54 -7,-8 -21,-13 -41,-13l-17 0c-20,0 -33,5 -41,13 -7,9 -11,25 -11,50l0 18zm337 246l0 -402 124 0 -2 57c10,-22 23,-38 38,-48 15,-9 35,-14 60,-14 40,0 68,10 84,31 16,20 24,59 24,115l0 36 -120 0 0 -26c0,-19 -3,-32 -9,-40 -5,-8 -16,-12 -31,-12 -16,0 -26,5 -32,14 -6,9 -9,30 -9,64l0 225 -127 0zm507 -231l0 62c0,31 4,51 11,61 7,9 20,14 39,14l15 0c19,0 32,-5 39,-14 7,-10 11,-30 11,-61l0 -62c0,-31 -4,-52 -11,-61 -7,-10 -20,-14 -39,-14l-15 0c-19,0 -32,4 -39,14 -7,9 -11,30 -11,61zm237 -171l0 376c0,42 -3,72 -9,92 -6,19 -16,36 -30,49 -12,12 -28,22 -50,29 -21,7 -43,10 -66,10l-44 0c-49,0 -86,-8 -112,-26 -25,-18 -37,-43 -37,-78l0 -22 122 0c0,13 3,22 9,27 5,5 15,8 30,8l18 0c18,0 30,-5 37,-14 6,-9 10,-27 10,-55l0 -59c-9,20 -23,34 -41,43 -18,8 -43,13 -74,13 -45,0 -77,-12 -98,-37 -21,-25 -31,-63 -31,-116l0 -80c0,-57 10,-99 32,-125 21,-27 55,-40 101,-40 25,0 47,4 65,14 18,9 32,23 40,41l0 -50 128 0zm169 398l-112 -398 133 0 77 299 67 -299 137 0 -125 455c-11,39 -27,66 -46,80 -19,15 -48,22 -85,22 -12,0 -31,-1 -60,-4 -4,0 -8,0 -10,-1l0 -89 28 0c13,0 24,-4 34,-11 10,-6 16,-14 19,-24l8 -30 -65 0z"/>
  </g>
 </g>
</svg>
